# xmcd
# Copyright (C) 1995-1998 Ti Kan
#
# Track frame offsets:
#       150
#       18180
#       39670
#       56945
#       75912
#       91810
#       100557
#       119697
#       138390
#       154715
#       172682
#       193127
#       210860
#       244745
#
# Disc length: 3620 seconds
#
# Revision: 0
# Processed by: cddbd v1.5.2PL0 Copyright (c) Steve Scherf et al.
# Submitted via: CD-Import v1.0
#
DISCID=a70e220e
DTITLE=Lacuna Coil - Comalies
DYEAR=04
DGENRE=
TTITLE0=Swamped
TTITLE1=Heaven's A Lie
TTITLE2=Daylight Dancer
TTITLE3=Humane
TTITLE4=Self Deception
TTITLE5=Aeon
TTITLE6=Tight Rope
TTITLE7=The Ghost Woman And The Hunter
TTITLE8=Unspoken
TTITLE9=Entwined
TTITLE10=The Prophet Said
TTITLE11=Angel's Punishment
TTITLE12=Comalies
TTITLE13=Data Track
EXTD=
EXTT0=
EXTT1=
EXTT2=
EXTT3=
EXTT4=
EXTT5=
EXTT6=
EXTT7=
EXTT8=
EXTT9=
EXTT10=
EXTT11=
EXTT12=
EXTT13=
PLAYORDER=
